<svg width="1440" height="900" viewBox="0 0 1440 900" fill="none" xmlns="http://www.w3.org/2000/svg">
  <defs>
    <linearGradient id="g1" x1="0" y1="0" x2="1" y2="1">
      <stop offset="0%" stop-color="#0ea5e9"/>
      <stop offset="100%" stop-color="#14b8a6"/>
    </linearGradient>
    <radialGradient id="glow" cx="50%" cy="40%" r="60%">
      <stop offset="0%" stop-color="#60a5fa" stop-opacity="0.35"/>
      <stop offset="100%" stop-color="#60a5fa" stop-opacity="0"/>
    </radialGradient>
  </defs>

  <!-- soft glow -->
  <rect x="0" y="0" width="1440" height="900" fill="url(#glow)"/>

  <!-- abstract waves suggesting tech/system theme -->
  <path d="M-50 650 C 200 500, 450 800, 700 650 C 950 500, 1200 800, 1500 650 L 1500 900 L -50 900 Z" fill="url(#g1)" opacity="0.18"/>
  <path d="M-50 580 C 220 430, 470 730, 720 580 C 970 430, 1220 730, 1500 580 L 1500 900 L -50 900 Z" fill="#1e40af" opacity="0.08"/>
  <path d="M-50 720 C 240 570, 490 870, 740 720 C 990 570, 1240 870, 1500 720 L 1500 900 L -50 900 Z" fill="#0f766e" opacity="0.08"/>

  <!-- subtle grid lines -->
  <g opacity="0.06" stroke="#0ea5e9">
    <line x1="0" y1="180" x2="1440" y2="180" />
    <line x1="0" y1="360" x2="1440" y2="360" />
    <line x1="0" y1="540" x2="1440" y2="540" />
    <line x1="0" y1="720" x2="1440" y2="720" />
    <line x1="240" y1="0" x2="240" y2="900" />
    <line x1="480" y1="0" x2="480" y2="900" />
    <line x1="720" y1="0" x2="720" y2="900" />
    <line x1="960" y1="0" x2="960" y2="900" />
    <line x1="1200" y1="0" x2="1200" y2="900" />
  </g>
</svg>